<?xml version="1.0" encoding="UTF-8"?>
<svg xmlns="http://www.w3.org/2000/svg" viewBox="0 0 217.448 55" fill="none">

<g transform="scale(1 1)"><g id="zentist">
<path d="M0 54.0984V42.9781L24.3443 22.1653H1.05191V15.403H30.4303V26.5232L6.08607 47.3361H32.3087V54.0984H0Z" fill="white"/>
<path d="M54.6701 55C50.763 55 47.3819 54.1735 44.5267 52.5205C41.7216 50.8174 39.5676 48.413 38.0649 45.3074C36.5622 42.2017 35.8108 38.6202 35.8108 34.5628C35.8108 30.6056 36.6123 27.1243 38.2152 24.1189C39.8181 21.0633 41.9971 18.709 44.7521 17.056C47.5572 15.3529 50.763 14.5014 54.3696 14.5014C57.8759 14.5014 60.9315 15.2527 63.5362 16.7555C66.191 18.2081 68.2448 20.2869 69.6974 22.9918C71.1501 25.6967 71.8764 28.9025 71.8764 32.6093C71.8764 33.3607 71.8513 34.112 71.8012 34.8634C71.8012 35.5647 71.7512 36.1658 71.651 36.6667H40.0185V30.8811H66.7671L63.987 32.1585C64.0371 29.704 63.6614 27.6503 62.86 25.9973C62.0585 24.2942 60.9064 23.0168 59.4037 22.1653C57.9511 21.3137 56.1728 20.888 54.069 20.888C52.1655 20.888 50.4124 21.3137 48.8094 22.1653C47.2566 23.0168 46.0294 24.3443 45.1278 26.1475C44.2762 27.9508 43.8504 30.255 43.8504 33.0601V35.4645C43.8504 39.5219 44.7521 42.7026 46.5553 45.0068C48.4087 47.2609 51.1888 48.388 54.8955 48.388C57.2498 48.388 59.2284 47.8871 60.8313 46.8852C62.4342 45.8333 63.7115 44.2555 64.6633 42.1516L71.125 45.082C70.1733 47.286 68.896 49.1393 67.2931 50.6421C65.7402 52.0947 63.8869 53.1967 61.7329 53.9481C59.6291 54.6494 57.2748 55 54.6701 55Z" fill="white"/>
<path d="M102.912 54.0984V30.7309C102.912 27.6252 102.186 25.3461 100.734 23.8934C99.2809 22.3907 97.3774 21.6393 95.0232 21.6393C92.3182 21.6393 90.1142 22.541 88.4111 24.3443C86.7581 26.1475 85.9316 28.627 85.9316 31.7828V54.0984H77.892V15.403H85.4808V20.7377C86.5327 18.7842 88.0104 17.2564 89.9139 16.1544C91.8674 15.0524 94.2217 14.5014 96.9767 14.5014C99.7818 14.5014 102.236 15.0524 104.34 16.1544C106.444 17.2564 108.072 18.9344 109.224 21.1885C110.376 23.3925 110.952 26.2227 110.952 29.679V54.0984H102.912Z" fill="white"/>
<path d="M133.734 54.8497C130.177 54.8497 127.472 53.9731 125.619 52.2199C123.766 50.4167 122.839 47.7117 122.839 44.1052V6.76229L130.879 2.47951V42.6025C130.879 44.3556 131.279 45.658 132.081 46.5096C132.932 47.3611 134.134 47.7869 135.687 47.7869C136.238 47.7869 136.789 47.7368 137.34 47.6366C137.941 47.5364 138.593 47.3611 139.294 47.1107V53.9481C138.342 54.2486 137.415 54.474 136.514 54.6243C135.662 54.7746 134.736 54.8497 133.734 54.8497ZM115.325 21.8648V15.403H139.67V21.8648H115.325Z" fill="white"/>
<path d="M145.104 54.0984V15.403H153.144V54.0984H145.104ZM149.161 10.2937C147.709 10.2937 146.482 9.7928 145.48 8.79098C144.478 7.78916 143.977 6.56193 143.977 5.10929C143.977 3.70674 144.478 2.50455 145.48 1.50273C146.482 0.50091 147.709 0 149.161 0C150.614 0 151.841 0.50091 152.843 1.50273C153.845 2.50455 154.346 3.70674 154.346 5.10929C154.346 6.56193 153.845 7.78916 152.843 8.79098C151.841 9.7928 150.614 10.2937 149.161 10.2937Z" fill="white"/>
<path d="M174.698 55C170.54 55 167.084 54.0733 164.329 52.2199C161.574 50.3165 159.771 47.3862 158.919 43.429L166.508 41.6257C167.109 44.1803 168.111 46.0337 169.513 47.1858C170.916 48.3379 172.744 48.9139 174.998 48.9139C177.152 48.9139 178.78 48.4631 179.882 47.5615C181.034 46.6598 181.61 45.3324 181.61 43.5792C181.61 42.1767 181.235 41.0246 180.483 40.1229C179.732 39.2213 178.43 38.495 176.576 37.944L169.589 35.9904C166.984 35.189 164.905 33.9367 163.352 32.2336C161.799 30.5305 161.023 28.3515 161.023 25.6967C161.023 23.4426 161.624 21.4891 162.826 19.8361C164.028 18.133 165.682 16.8306 167.785 15.929C169.889 14.9772 172.319 14.5014 175.074 14.5014C177.578 14.5014 179.832 14.852 181.836 15.5533C183.84 16.2045 185.518 17.2313 186.87 18.6339C188.222 20.0364 189.149 21.8147 189.65 23.9686L182.212 25.9973C181.56 24.1439 180.634 22.7914 179.432 21.9399C178.229 21.0883 176.702 20.6626 174.848 20.6626C172.945 20.6626 171.492 21.0883 170.49 21.9399C169.488 22.7413 168.988 23.7933 168.988 25.0956C168.988 26.2978 169.338 27.2746 170.039 28.026C170.741 28.7773 171.818 29.3784 173.27 29.8292L179.882 31.7828C181.886 32.3338 183.614 33.0601 185.067 33.9617C186.519 34.8634 187.646 36.0656 188.448 37.5683C189.249 39.0209 189.65 40.8493 189.65 43.0533C189.65 45.6079 189.024 47.7869 187.772 49.5902C186.519 51.3434 184.766 52.6958 182.512 53.6475C180.258 54.5492 177.653 55 174.698 55Z" fill="white"/>
<path d="M211.512 54.8497C207.955 54.8497 205.251 53.9731 203.397 52.2199C201.544 50.4167 200.617 47.7117 200.617 44.1052V6.76229L208.657 2.47951V42.6025C208.657 44.3556 209.057 45.658 209.859 46.5096C210.71 47.3611 211.913 47.7869 213.465 47.7869C214.016 47.7869 214.567 47.7368 215.118 47.6366C215.72 47.5364 216.371 47.3611 217.072 47.1107V53.9481C216.12 54.2486 215.194 54.474 214.292 54.6243C213.44 54.7746 212.514 54.8497 211.512 54.8497ZM193.103 21.8648V15.403H217.448V21.8648H193.103Z" fill="white"/>
</g></g>
</svg>