<?xml version="1.0" encoding="UTF-8"?>
<svg xmlns="http://www.w3.org/2000/svg" viewBox="0 0 461.668 140" fill="none">
<defs>
<linearGradient id="logo-verify-0-paint0_linear_7_323" x1="12.522" y1="6.26099" x2="68.522" y2="118.261" gradientUnits="userSpaceOnUse">
<stop stop-color="white" stop-opacity="0"/>
<stop offset="1" stop-color="white"/>
</linearGradient>
</defs>
<defs>
<linearGradient id="logo-verify-1-paint0_linear_7_327" x1="68.522" y1="6.26099" x2="12.522" y2="118.261" gradientUnits="userSpaceOnUse">
<stop stop-color="white"/>
<stop offset="1" stop-color="white" stop-opacity="0"/>
</linearGradient>
</defs>
<g transform="translate(1.484 7.742) scale(0.9998519322836977 0.9999518157434026)"><path id="Vector" opacity="0.3" d="M0 12.522L56 124.522L81.044 112L25.044 0L0 12.522Z" fill="url(#logo-verify-0-paint0_linear_7_323)"/></g>
<g transform="translate(57.484 7.742) scale(0.9998519322836977 0.9999518157434026)"><path id="Vector" opacity="0.3" d="M56 0L0 112L25.044 124.522L81.044 12.522L56 0Z" fill="url(#logo-verify-1-paint0_linear_7_327)"/></g>
<g transform="translate(56 112) scale(1 1)"><path id="Vector" d="M14 28C21.732 28 28 21.732 28 14C28 6.26801 21.732 0 14 0C6.26801 0 0 6.26801 0 14C0 21.732 6.26801 28 14 28Z" fill="var(--fill-0, white)"/></g>
<g transform="translate(0 0) scale(1 1)"><path id="Vector" d="M14 28C21.732 28 28 21.732 28 14C28 6.26801 21.732 0 14 0C6.26801 0 0 6.26801 0 14C0 21.732 6.26801 28 14 28Z" fill="var(--fill-0, white)"/></g>
<g transform="translate(112 0) scale(1 1)"><path id="Vector" d="M14 28C21.732 28 28 21.732 28 14C28 6.26801 21.732 0 14 0C6.26801 0 0 6.26801 0 14C0 21.732 6.26801 28 14 28Z" fill="var(--fill-0, white)"/></g>
<g transform="translate(180 20.29) scale(1 1)"><g id="name">
<path d="M23.98 79.42L0 1.87H13.31L34.54 73.37L55.66 1.87H68.97L44.99 79.42H23.98Z" fill="white"/>
<path d="M96.4167 80.74C90.6967 80.74 85.7467 79.53 81.5667 77.11C77.4601 74.6167 74.3067 71.0967 72.1067 66.55C69.9067 62.0033 68.8067 56.76 68.8067 50.82C68.8067 45.0267 69.9801 39.93 72.3267 35.53C74.6734 31.0567 77.8634 27.61 81.8967 25.19C86.0034 22.6967 90.6967 21.45 95.9767 21.45C101.11 21.45 105.583 22.55 109.397 24.75C113.283 26.8767 116.29 29.92 118.417 33.88C120.543 37.84 121.607 42.5333 121.607 47.96C121.607 49.06 121.57 50.16 121.497 51.26C121.497 52.2867 121.423 53.1667 121.277 53.9H74.9667V45.43H114.127L110.057 47.3C110.13 43.7067 109.58 40.7 108.407 38.28C107.233 35.7867 105.547 33.9167 103.347 32.67C101.22 31.4233 98.6167 30.8 95.5367 30.8C92.7501 30.8 90.1834 31.4233 87.8367 32.67C85.5634 33.9167 83.7667 35.86 82.4467 38.5C81.2001 41.14 80.5767 44.5133 80.5767 48.62V52.14C80.5767 58.08 81.8967 62.7367 84.5367 66.11C87.2501 69.41 91.3201 71.06 96.7467 71.06C100.193 71.06 103.09 70.3267 105.437 68.86C107.783 67.32 109.653 65.01 111.047 61.93L120.507 66.22C119.113 69.4467 117.243 72.16 114.897 74.36C112.623 76.4867 109.91 78.1 106.757 79.2C103.677 80.2267 100.23 80.74 96.4167 80.74Z" fill="white"/>
<path d="M130.414 79.42V22.77H141.524V29.7C142.697 27.2067 144.457 25.2267 146.804 23.76C149.224 22.22 152.084 21.45 155.384 21.45C156.044 21.45 156.704 21.5233 157.364 21.67C158.097 21.7433 158.72 21.8533 159.234 22V33C158.354 32.78 157.584 32.67 156.924 32.67C156.337 32.5967 155.64 32.56 154.834 32.56C152.56 32.56 150.434 33.0733 148.454 34.1C146.547 35.1267 145.007 36.74 143.834 38.94C142.734 41.14 142.184 43.9633 142.184 47.41V79.42H130.414Z" fill="white"/>
<path d="M166.722 79.42V22.77H178.492V79.42H166.722ZM172.662 15.29C170.536 15.29 168.739 14.5567 167.272 13.09C165.806 11.6233 165.072 9.82667 165.072 7.70001C165.072 5.64667 165.806 3.88667 167.272 2.42C168.739 0.953336 170.536 0.220004 172.662 0.220004C174.789 0.220004 176.586 0.953336 178.052 2.42C179.519 3.88667 180.252 5.64667 180.252 7.70001C180.252 9.82667 179.519 11.6233 178.052 13.09C176.586 14.5567 174.789 15.29 172.662 15.29Z" fill="white"/>
<path d="M197.398 79.42V17.27C197.398 11.99 198.938 7.81 202.018 4.73C205.098 1.57667 209.241 0 214.448 0C216.428 0 218.078 0.110001 219.398 0.330002C220.718 0.550004 222.111 0.953339 223.578 1.54001V10.56C222.404 10.12 221.304 9.79 220.278 9.57C219.251 9.27667 218.114 9.13 216.868 9.13C214.448 9.13 212.541 9.86334 211.148 11.33C209.828 12.7967 209.168 14.85 209.168 17.49V79.42H197.398ZM186.398 32.23V22.77H222.038V32.23H186.398Z" fill="white"/>
<path d="M243.388 101.42L251.968 75.9L252.848 74.03L269.568 22.77H281.668L255.378 101.42H243.388ZM245.808 79.09L226.118 22.77H238.218L254.608 71.28H257.798L257.138 79.09H245.808Z" fill="white"/>
</g></g>
</svg>