<?xml version="1.0" encoding="UTF-8"?>
<svg xmlns="http://www.w3.org/2000/svg" viewBox="0 0 140 140" fill="none">
<defs>
<linearGradient id="logo-autoposting-0-paint0_linear_1673_552" x1="13.9957" y1="69.996" x2="69.9957" y2="13.9957" gradientUnits="userSpaceOnUse">
<stop stop-color="#8F34FE"/>
<stop offset="1" stop-color="#8F34FE" stop-opacity="0"/>
</linearGradient>
</defs>
<defs>
<linearGradient id="logo-autoposting-2-paint0_linear_1673_528" x1="56.341" y1="69.9946" x2="0.341037" y2="13.9945" gradientUnits="userSpaceOnUse">
<stop stop-color="#8F34FE" stop-opacity="0"/>
<stop offset="1" stop-color="#8F34FE"/>
</linearGradient>
</defs>
<defs>
<linearGradient id="logo-autoposting-4-paint0_linear_1673_526" x1="56.341" y1="0.341003" x2="0.340959" y2="56.3409" gradientUnits="userSpaceOnUse">
<stop stop-color="#8F34FE"/>
<stop offset="1" stop-color="#8F34FE" stop-opacity="0"/>
</linearGradient>
<linearGradient id="logo-autoposting-4-paint1_linear_1673_526" x1="56.341" y1="0.341003" x2="0.340959" y2="56.3409" gradientUnits="userSpaceOnUse">
<stop stop-color="#8F34FE"/>
<stop offset="1" stop-color="#8F34FE" stop-opacity="0"/>
</linearGradient>
</defs>
<defs>
<linearGradient id="logo-autoposting-6-paint0_linear_1673_524" x1="69.996" y1="56.341" x2="13.996" y2="0.340999" gradientUnits="userSpaceOnUse">
<stop stop-color="#8F34FE"/>
<stop offset="1" stop-color="#8F34FE" stop-opacity="0"/>
</linearGradient>
</defs>
<g transform="translate(0 0) scale(0.9999872044403437 0.9999872044403437)"><path id="Subtract" opacity="0.3" d="M70.3369 27.9922C59.1919 28.2641 48.5783 32.8123 40.6953 40.6953C32.8123 48.5783 28.2642 59.192 27.9922 70.3369L27.9912 70.3359C27.9939 70.223 27.9961 70.1097 27.9961 69.9961C27.9961 62.2641 21.728 55.9961 13.9961 55.9961C6.37797 55.9961 0.180863 62.0807 0 69.6553L0.0263672 68.7959C0.682517 50.7773 8.13198 33.661 20.8965 20.8965C33.8637 7.92929 51.3223 0.446996 69.6553 0L70.3369 27.9922Z" fill="url(#logo-autoposting-0-paint0_linear_1673_552)"/></g>
<g transform="translate(56 0) scale(1 1)"><path id="Vector" d="M14 28C21.732 28 28 21.732 28 14C28 6.26801 21.732 0 14 0C6.26801 0 0 6.26801 0 14C0 21.732 6.26801 28 14 28Z" fill="var(--fill-0, #8F34FE)"/></g>
<g transform="translate(69.664 0) scale(0.999985782731706 1.0000056870205132)"><path id="Subtract" opacity="0.3" d="M0.734727 0C19.0485 0.460027 36.486 7.9402 49.4408 20.895C62.408 33.8622 69.89 51.3207 70.337 69.6537L42.3451 70.3356C42.0731 59.1906 37.5245 48.5772 29.6414 40.6942C21.7584 32.8112 11.145 28.2625 0 27.9906L0.000136719 27.9903C0.113457 27.993 0.227141 27.9945 0.341113 27.9945C8.07308 27.9945 14.3411 21.7265 14.3411 13.9945C14.3411 6.39419 8.28469 0.208441 0.734727 0Z" fill="url(#logo-autoposting-2-paint0_linear_1673_528)"/></g>
<g transform="translate(112 56) scale(1 1)"><path id="Vector" d="M14 28C21.732 28 28 21.732 28 14C28 6.26801 21.732 0 14 0C6.26801 0 0 6.26801 0 14C0 21.732 6.26801 28 14 28Z" fill="var(--fill-0, #8F34FE)"/></g>
<g transform="translate(69.664 69.664) scale(0.9999872044403437 0.999985782731706)"><g id="Subtract" opacity="0.3">
<path d="M70.3361 0.708066C69.8826 19.0315 62.4017 36.4796 49.4406 49.4406C36.4734 62.4079 19.0149 69.89 0.681953 70.337L0 42.3449C11.145 42.073 21.7583 37.5245 29.6413 29.6414C37.5244 21.7584 42.073 11.145 42.3449 0C42.3422 0.113331 42.341 0.226994 42.341 0.340977C42.341 8.07296 48.609 14.341 56.341 14.341C63.9502 14.341 70.1414 8.27037 70.3361 0.708066Z" fill="url(#logo-autoposting-4-paint0_linear_1673_526)"/>
<path d="M70.3366 0.681816L70.3369 0.681953C70.3367 0.688453 70.3365 0.695004 70.3363 0.701504C70.3365 0.694944 70.3364 0.688378 70.3366 0.681816Z" fill="url(#logo-autoposting-4-paint1_linear_1673_526)"/>
</g></g>
<g transform="translate(56 56) scale(1 1)"><path id="Vector" d="M14 28C21.732 28 28 21.732 28 14C28 6.26801 21.732 0 14 0C6.26801 0 0 6.26801 0 14C0 21.732 6.26801 28 14 28Z" fill="var(--fill-0, #8F34FE)"/></g>
<g transform="translate(0 69.664) scale(0.9999872044403437 1.0000014217490645)"><path id="Subtract" opacity="0.3" d="M27.9922 0C28.2641 11.145 32.8123 21.7586 40.6953 29.6416C48.5783 37.5246 59.192 42.0728 70.3369 42.3447C70.224 42.342 70.1097 42.3408 69.9961 42.3408C62.2642 42.3408 55.9962 48.6089 55.9961 56.3408C55.9961 63.9589 62.0807 70.155 69.6553 70.3359C51.3223 69.8889 33.8637 62.4076 20.8965 49.4404C7.9293 36.4732 0.446996 19.0146 0 0.681641L27.9922 0Z" fill="url(#logo-autoposting-6-paint0_linear_1673_524)"/></g>
<g transform="translate(56 112) scale(1 1)"><path id="Vector" d="M14 28C21.732 28 28 21.732 28 14C28 6.26801 21.732 0 14 0C6.26801 0 0 6.26801 0 14C0 21.732 6.26801 28 14 28Z" fill="var(--fill-0, #8F34FE)"/></g>
<g transform="translate(0 56) scale(1 1)"><path id="Vector" d="M14 28C21.732 28 28 21.732 28 14C28 6.26801 21.732 0 14 0C6.26801 0 0 6.26801 0 14C0 21.732 6.26801 28 14 28Z" fill="var(--fill-0, #8F34FE)"/></g>
</svg>