<?xml version="1.0" encoding="UTF-8"?>
<svg xmlns="http://www.w3.org/2000/svg" viewBox="0 0 483.644 140" fill="none">
<defs>
<linearGradient id="logo-caviar-0-paint0_linear_12_577" x1="65.8995" y1="9.89949" x2="9.89949" y2="65.8995" gradientUnits="userSpaceOnUse">
<stop stop-color="white"/>
<stop offset="1" stop-color="white" stop-opacity="0"/>
</linearGradient>
</defs>
<defs>
<linearGradient id="logo-caviar-1-paint0_linear_12_569" x1="9.89949" y1="9.8995" x2="65.8995" y2="65.8995" gradientUnits="userSpaceOnUse">
<stop stop-color="white" stop-opacity="0"/>
<stop offset="1" stop-color="white"/>
</linearGradient>
</defs>
<defs>
<linearGradient id="logo-caviar-2-paint0_linear_12_567" x1="9.8995" y1="9.89949" x2="65.8995" y2="65.8995" gradientUnits="userSpaceOnUse">
<stop stop-color="white"/>
<stop offset="1" stop-color="white" stop-opacity="0"/>
</linearGradient>
</defs>
<defs>
<linearGradient id="logo-caviar-3-paint0_linear_12_565" x1="65.8995" y1="9.89949" x2="9.8995" y2="65.8995" gradientUnits="userSpaceOnUse">
<stop stop-color="white" stop-opacity="0"/>
<stop offset="1" stop-color="white"/>
</linearGradient>
</defs>
<g transform="translate(4.102 4.102) scale(0.999960421641446 0.999960421641446)"><path id="Vector" opacity="0.3" d="M56 0L0 56L19.799 75.799L75.799 19.799L56 0Z" fill="url(#logo-caviar-0-paint0_linear_12_577)"/></g>
<g transform="translate(60.102000000000004 4.102) scale(0.9999604216414463 0.999960421641446)"><path id="Vector" opacity="0.3" d="M0 19.799L56 75.799L75.799 56L19.799 0L0 19.799Z" fill="url(#logo-caviar-1-paint0_linear_12_569)"/></g>
<g transform="translate(4.102 60.102000000000004) scale(0.999960421641446 0.9999604216414463)"><path id="Vector" opacity="0.3" d="M0 19.799L56 75.799L75.799 56L19.799 0L0 19.799Z" fill="url(#logo-caviar-2-paint0_linear_12_567)"/></g>
<g transform="translate(60.102000000000004 60.102000000000004) scale(0.9999604216414463 0.9999604216414463)"><path id="Vector" opacity="0.3" d="M56 0L0 56L19.799 75.799L75.799 19.799L56 0Z" fill="url(#logo-caviar-3-paint0_linear_12_565)"/></g>
<g transform="translate(56 112) scale(1 1)"><path id="Vector" d="M14 28C21.732 28 28 21.732 28 14C28 6.26801 21.732 0 14 0C6.26801 0 0 6.26801 0 14C0 21.732 6.26801 28 14 28Z" fill="var(--fill-0, white)"/></g>
<g transform="translate(112 56) scale(1 1)"><path id="Vector" d="M14 28C21.732 28 28 21.732 28 14C28 6.26801 21.732 0 14 0C6.26801 0 0 6.26801 0 14C0 21.732 6.26801 28 14 28Z" fill="var(--fill-0, white)"/></g>
<g transform="translate(0 56) scale(1 1)"><path id="Vector" d="M14 28C21.732 28 28 21.732 28 14C28 6.26801 21.732 0 14 0C6.26801 0 0 6.26801 0 14C0 21.732 6.26801 28 14 28Z" fill="var(--fill-0, white)"/></g>
<g transform="translate(56 0) scale(1 1)"><path id="Vector" d="M14 28C21.732 28 28 21.732 28 14C28 6.26801 21.732 0 14 0C6.26801 0 0 6.26801 0 14C0 21.732 6.26801 28 14 28Z" fill="var(--fill-0, white)"/></g>
<g transform="translate(180 29.41) scale(1 1)"><g id="name">
<path d="M37.84 81.18C30.36 81.18 23.76 79.4933 18.04 76.12C12.3933 72.7467 7.95667 68.0167 4.73 61.93C1.57667 55.8433 0 48.73 0 40.59C0 34.43 0.916667 28.8567 2.75 23.87C4.58333 18.8833 7.15 14.63 10.45 11.11C13.75 7.51667 17.71 4.76666 22.33 2.86C26.95 0.953332 32.0467 0 37.62 0C43.6333 0 48.8767 0.88 53.35 2.64C57.8233 4.4 61.5633 7.00333 64.57 10.45C67.5767 13.8967 69.85 18.15 71.39 23.21L59.4 27.06C57.7867 21.8533 55.1467 17.93 51.48 15.29C47.8133 12.5767 43.1933 11.22 37.62 11.22C32.56 11.22 28.1967 12.3933 24.53 14.74C20.8633 17.0867 18.04 20.46 16.06 24.86C14.08 29.26 13.09 34.5033 13.09 40.59C13.09 46.6033 14.08 51.81 16.06 56.21C18.04 60.61 20.8633 64.02 24.53 66.44C28.27 68.7867 32.67 69.96 37.73 69.96C43.23 69.96 47.7767 68.64 51.37 66C55.0367 63.2867 57.7133 59.3267 59.4 54.12L71.39 57.86C69.7767 62.9933 67.43 67.2833 64.35 70.73C61.3433 74.1767 57.64 76.78 53.24 78.54C48.84 80.3 43.7067 81.18 37.84 81.18Z" fill="white"/>
<path d="M97.6525 80.63C92.0058 80.63 87.3858 79.1633 83.7925 76.23C80.2725 73.2967 78.5125 69.3367 78.5125 64.35C78.5125 59.51 80.1258 55.66 83.3525 52.8C86.6525 49.8667 90.9425 47.85 96.2225 46.75L119.323 41.91V50.05L101.062 54.23C97.7625 54.9633 95.1958 56.0633 93.3625 57.53C91.6025 58.9233 90.7225 60.9033 90.7225 63.47C90.7225 66.11 91.6025 68.1267 93.3625 69.52C95.1225 70.9133 97.5058 71.61 100.513 71.61C103.299 71.61 105.682 71.06 107.662 69.96C109.716 68.7867 111.293 67.21 112.393 65.23C113.566 63.1767 114.153 60.8667 114.153 58.3V42.02C114.153 38.5 113.236 35.7867 111.403 33.88C109.569 31.9 106.892 30.91 103.372 30.91C100.072 30.91 97.4325 31.7533 95.4525 33.44C93.4725 35.0533 92.1158 37.3267 91.3825 40.26L80.0525 37.84C81.1525 32.9267 83.7558 28.9667 87.8625 25.96C92.0425 22.88 97.3225 21.34 103.702 21.34C111.109 21.34 116.646 23.2467 120.312 27.06C124.053 30.8 125.923 36.0067 125.923 42.68V67.98L130.213 79.31H117.893L115.363 72.16C113.603 74.8733 111.219 76.9633 108.213 78.43C105.279 79.8967 101.759 80.63 97.6525 80.63Z" fill="white"/>
<path d="M150.217 79.31L131.407 22.66H144.497L159.457 72.6L174.307 22.66H187.397L168.587 79.31H150.217Z" fill="white"/>
<path d="M194.15 79.31V22.66H205.92V79.31H194.15ZM200.09 15.18C197.963 15.18 196.167 14.4467 194.7 12.98C193.233 11.5133 192.5 9.71667 192.5 7.59C192.5 5.53667 193.233 3.77667 194.7 2.31C196.167 0.843331 197.963 0.109999 200.09 0.109999C202.217 0.109999 204.013 0.843331 205.48 2.31C206.947 3.77667 207.68 5.53667 207.68 7.59C207.68 9.71667 206.947 11.5133 205.48 12.98C204.013 14.4467 202.217 15.18 200.09 15.18Z" fill="white"/>
<path d="M234.615 80.63C228.969 80.63 224.349 79.1633 220.755 76.23C217.235 73.2967 215.475 69.3367 215.475 64.35C215.475 59.51 217.089 55.66 220.315 52.8C223.615 49.8667 227.905 47.85 233.185 46.75L256.285 41.91V50.05L238.025 54.23C234.725 54.9633 232.159 56.0633 230.325 57.53C228.565 58.9233 227.685 60.9033 227.685 63.47C227.685 66.11 228.565 68.1267 230.325 69.52C232.085 70.9133 234.469 71.61 237.475 71.61C240.262 71.61 242.645 71.06 244.625 69.96C246.679 68.7867 248.255 67.21 249.355 65.23C250.529 63.1767 251.115 60.8667 251.115 58.3V42.02C251.115 38.5 250.199 35.7867 248.365 33.88C246.532 31.9 243.855 30.91 240.335 30.91C237.035 30.91 234.395 31.7533 232.415 33.44C230.435 35.0533 229.079 37.3267 228.345 40.26L217.015 37.84C218.115 32.9267 220.719 28.9667 224.825 25.96C229.005 22.88 234.285 21.34 240.665 21.34C248.072 21.34 253.609 23.2467 257.275 27.06C261.015 30.8 262.885 36.0067 262.885 42.68V67.98L267.175 79.31H254.855L252.325 72.16C250.565 74.8733 248.182 76.9633 245.175 78.43C242.242 79.8967 238.722 80.63 234.615 80.63Z" fill="white"/>
<path d="M274.824 79.31V22.66H285.934V29.59C287.107 27.0967 288.867 25.1167 291.214 23.65C293.634 22.11 296.494 21.34 299.794 21.34C300.454 21.34 301.114 21.4133 301.774 21.56C302.507 21.6333 303.13 21.7433 303.644 21.89V32.89C302.764 32.67 301.994 32.56 301.334 32.56C300.747 32.4867 300.051 32.45 299.244 32.45C296.971 32.45 294.844 32.9633 292.864 33.99C290.957 35.0167 289.417 36.63 288.244 38.83C287.144 41.03 286.594 43.8533 286.594 47.3V79.31H274.824Z" fill="white"/>
</g></g>
</svg>