<?xml version="1.0" encoding="UTF-8"?>
<svg xmlns="http://www.w3.org/2000/svg" viewBox="0 0 140 140" fill="none">
<defs>
<linearGradient id="logo-remit-ai-0-paint0_linear_1673_604" x1="6.55896" y1="62.5586" x2="62.5586" y2="6.55896" gradientUnits="userSpaceOnUse">
<stop stop-color="#FE2EAB"/>
<stop offset="0.1" stop-color="#F52DB6"/>
<stop offset="0.2" stop-color="#EC2CC1"/>
<stop offset="0.3" stop-color="#E22DCB"/>
<stop offset="0.4" stop-color="#D82DD5"/>
<stop offset="0.5" stop-color="#CD2EDE"/>
<stop offset="0.6" stop-color="#C12FE6"/>
<stop offset="0.7" stop-color="#B530ED"/>
<stop offset="0.8" stop-color="#A931F4"/>
<stop offset="0.9" stop-color="#9C33F9"/>
<stop offset="1" stop-color="#8F34FE"/>
</linearGradient>
</defs>
<defs>
<linearGradient id="logo-remit-ai-1-paint0_linear_1673_616" x1="62.5586" y1="68.3675" x2="6.55895" y2="12.3679" gradientUnits="userSpaceOnUse">
<stop stop-color="#8F34FE"/>
<stop offset="0.1" stop-color="#9C33F9"/>
<stop offset="0.2" stop-color="#A931F4"/>
<stop offset="0.3" stop-color="#B530ED"/>
<stop offset="0.4" stop-color="#C12FE6"/>
<stop offset="0.5" stop-color="#CD2EDE"/>
<stop offset="0.6" stop-color="#D82DD5"/>
<stop offset="0.7" stop-color="#E22DCB"/>
<stop offset="0.8" stop-color="#EC2CC1"/>
<stop offset="0.9" stop-color="#F52DB6"/>
<stop offset="1" stop-color="#FE2EAB"/>
</linearGradient>
</defs>
<defs>
<linearGradient id="logo-remit-ai-2-paint0_linear_1673_612" x1="68.3675" y1="12.3679" x2="12.3679" y2="68.3675" gradientUnits="userSpaceOnUse">
<stop stop-color="#FE2EAB"/>
<stop offset="0.1" stop-color="#F52DB6"/>
<stop offset="0.2" stop-color="#EC2CC1"/>
<stop offset="0.3" stop-color="#E22DCB"/>
<stop offset="0.4" stop-color="#D82DD5"/>
<stop offset="0.5" stop-color="#CD2EDE"/>
<stop offset="0.6" stop-color="#C12FE6"/>
<stop offset="0.7" stop-color="#B530ED"/>
<stop offset="0.8" stop-color="#A931F4"/>
<stop offset="0.9" stop-color="#9C33F9"/>
<stop offset="1" stop-color="#8F34FE"/>
</linearGradient>
</defs>
<defs>
<linearGradient id="logo-remit-ai-3-paint0_linear_1673_580" x1="68.3675" y1="62.5586" x2="12.3679" y2="6.55894" gradientUnits="userSpaceOnUse">
<stop stop-color="#FE2EAB"/>
<stop offset="0.1" stop-color="#F52DB6"/>
<stop offset="0.2" stop-color="#EC2CC1"/>
<stop offset="0.3" stop-color="#E22DCB"/>
<stop offset="0.4" stop-color="#D82DD5"/>
<stop offset="0.5" stop-color="#CD2EDE"/>
<stop offset="0.6" stop-color="#C12FE6"/>
<stop offset="0.7" stop-color="#B530ED"/>
<stop offset="0.8" stop-color="#A931F4"/>
<stop offset="0.9" stop-color="#9C33F9"/>
<stop offset="1" stop-color="#8F34FE"/>
</linearGradient>
</defs>
<g transform="translate(7.448 7.448) scale(0.9998331698397763 0.9998331698397763)"><path id="Vector" opacity="0.3" d="M13.1179 74.9265C39.4381 60.9681 60.9681 39.4381 74.9265 13.1179L50.1907 0C38.8559 21.3729 21.3729 38.8559 0 50.1907L13.1179 74.9265Z" fill="url(#logo-remit-ai-0-paint0_linear_1673_604)"/></g>
<g transform="translate(7.448 57.638) scale(0.9998331698397763 0.9998331698397763)"><path id="Vector" opacity="0.3" d="M74.9265 61.8086C60.9681 35.4884 39.4381 13.9584 13.1179 0L0 24.7358C21.3729 36.0706 38.8559 53.5536 50.1907 74.9265L74.9265 61.8086Z" fill="url(#logo-remit-ai-1-paint0_linear_1673_616)"/></g>
<g transform="translate(57.638 57.638) scale(0.9998331698397763 0.9998331698397763)"><path id="Vector" opacity="0.3" d="M61.8086 0C35.4884 13.9584 13.9584 35.4884 0 61.8086L24.7358 74.9265C36.0706 53.5536 53.5536 36.0706 74.9265 24.7358L61.8086 0Z" fill="url(#logo-remit-ai-2-paint0_linear_1673_612)"/></g>
<g transform="translate(57.638 7.448) scale(0.9998331698397763 0.9998331698397763)"><path id="Vector" opacity="0.3" d="M61.8086 74.9265C35.4884 60.9681 13.9584 39.4381 0 13.1179L24.7358 0C36.0706 21.3729 53.5536 38.8559 74.9265 50.1907L61.8086 74.9265Z" fill="url(#logo-remit-ai-3-paint0_linear_1673_580)"/></g>
<g transform="translate(56 0) scale(1.0000071429081636 1.0000071429081636)"><path id="Vector" d="M13.9999 27.9998C21.7318 27.9998 27.9998 21.7318 27.9998 13.9999C27.9998 6.26797 21.7318 0 13.9999 0C6.26797 0 0 6.26797 0 13.9999C0 21.7318 6.26797 27.9998 13.9999 27.9998Z" fill="var(--fill-0, #8F34FE)"/></g>
<g transform="translate(0 56) scale(1.0000071429081636 1.0000071429081636)"><path id="Vector" d="M13.9999 27.9998C21.7318 27.9998 27.9998 21.7318 27.9998 13.9999C27.9998 6.26797 21.7318 0 13.9999 0C6.26797 0 0 6.26797 0 13.9999C0 21.7318 6.26797 27.9998 13.9999 27.9998Z" fill="var(--fill-0, #FE2EAB)"/></g>
<g transform="translate(56 112) scale(1.0000071429081636 1.0000071429081636)"><path id="Vector" d="M13.9999 27.9998C21.7318 27.9998 27.9998 21.7318 27.9998 13.9999C27.9998 6.26797 21.7318 0 13.9999 0C6.26797 0 0 6.26797 0 13.9999C0 21.7318 6.26797 27.9998 13.9999 27.9998Z" fill="var(--fill-0, #8F34FE)"/></g>
<g transform="translate(112 56) scale(1.0000071429081636 1.0000071429081636)"><path id="Vector" d="M13.9999 27.9998C21.7318 27.9998 27.9998 21.7318 27.9998 13.9999C27.9998 6.26797 21.7318 0 13.9999 0C6.26797 0 0 6.26797 0 13.9999C0 21.7318 6.26797 27.9998 13.9999 27.9998Z" fill="var(--fill-0, #FE2EAB)"/></g>
</svg>