<svg preserveAspectRatio="none" width="100%" height="100%" overflow="visible" style="display: block;" viewBox="0 0 592.465 102.52" fill="none" xmlns="http://www.w3.org/2000/svg">
<g id="name">
<path d="M0 79.2L24.64 1.65H45.65L70.29 79.2H57.31L35.2 6.93L12.98 79.2H0ZM17.16 51.15V40.81H53.13V51.15H17.16Z" fill="var(--fill-0, black)"/>
<path d="M100.13 80.52C95.2901 80.52 91.0734 79.6767 87.4801 77.99C83.9601 76.23 81.2101 73.59 79.2301 70.07C77.2501 66.55 76.2601 62.1867 76.2601 56.98V22.55H88.0301V56.54C88.0301 61.2333 89.1301 64.7167 91.3301 66.99C93.6034 69.2633 96.5367 70.4 100.13 70.4C103.797 70.4 106.73 69.2633 108.93 66.99C111.13 64.7167 112.23 61.2333 112.23 56.54V22.55H124V56.98C124 62.1867 123.01 66.55 121.03 70.07C119.123 73.59 116.373 76.23 112.78 77.99C109.187 79.6767 104.97 80.52 100.13 80.52Z" fill="var(--fill-0, black)"/>
<path d="M158.348 80.3C153.141 80.3 149.181 79.0167 146.468 76.45C143.754 73.81 142.398 69.85 142.398 64.57V9.9L154.168 3.63V62.37C154.168 64.9367 154.754 66.8433 155.928 68.09C157.174 69.3367 158.934 69.96 161.208 69.96C162.014 69.96 162.821 69.8867 163.628 69.74C164.508 69.5933 165.461 69.3367 166.488 68.97V78.98C165.094 79.42 163.738 79.75 162.418 79.97C161.171 80.19 159.814 80.3 158.348 80.3ZM131.398 32.01V22.55H167.038V32.01H131.398Z" fill="var(--fill-0, black)"/>
<path d="M200.844 80.52C195.49 80.52 190.687 79.3467 186.434 77C182.18 74.58 178.807 71.17 176.314 66.77C173.894 62.2967 172.684 57.0167 172.684 50.93C172.684 44.77 173.894 39.49 176.314 35.09C178.807 30.69 182.18 27.28 186.434 24.86C190.687 22.44 195.49 21.23 200.844 21.23C206.197 21.23 211 22.44 215.254 24.86C219.507 27.28 222.844 30.69 225.264 35.09C227.757 39.49 229.004 44.77 229.004 50.93C229.004 57.0167 227.757 62.2967 225.264 66.77C222.844 71.17 219.507 74.58 215.254 77C211 79.3467 206.197 80.52 200.844 80.52ZM200.844 70.4C203.777 70.4 206.454 69.7033 208.874 68.31C211.294 66.8433 213.2 64.68 214.594 61.82C216.06 58.8867 216.794 55.2567 216.794 50.93C216.794 46.53 216.06 42.9 214.594 40.04C213.2 37.18 211.294 35.0167 208.874 33.55C206.454 32.0833 203.777 31.35 200.844 31.35C197.837 31.35 195.124 32.0833 192.704 33.55C190.284 35.0167 188.34 37.18 186.874 40.04C185.48 42.9 184.784 46.53 184.784 50.93C184.784 55.2567 185.48 58.8867 186.874 61.82C188.34 64.68 190.284 66.8433 192.704 68.31C195.124 69.7033 197.837 70.4 200.844 70.4Z" fill="var(--fill-0, black)"/>
<path d="M238.373 101.2V22.55H249.483V31.35C250.803 28.8567 252.453 26.8767 254.433 25.41C256.413 23.9433 258.576 22.88 260.923 22.22C263.343 21.56 265.763 21.23 268.183 21.23C272.949 21.23 277.239 22.4033 281.053 24.75C284.866 27.0967 287.873 30.5067 290.073 34.98C292.273 39.38 293.373 44.6967 293.373 50.93C293.373 57.09 292.273 62.4067 290.073 66.88C287.873 71.28 284.866 74.6533 281.053 77C277.313 79.3467 273.023 80.52 268.183 80.52C265.983 80.52 263.746 80.2267 261.473 79.64C259.273 79.0533 257.183 78.0633 255.203 76.67C253.296 75.2767 251.609 73.4433 250.143 71.17V101.2H238.373ZM265.323 70.4C268.329 70.4 271.006 69.7033 273.353 68.31C275.773 66.8433 277.679 64.68 279.073 61.82C280.539 58.96 281.273 55.33 281.273 50.93C281.273 46.53 280.539 42.9 279.073 40.04C277.679 37.18 275.773 35.0167 273.353 33.55C271.006 32.0833 268.329 31.35 265.323 31.35C262.389 31.35 259.713 32.0833 257.293 33.55C254.873 35.0167 252.966 37.18 251.573 40.04C250.179 42.9 249.483 46.53 249.483 50.93C249.483 55.33 250.179 58.96 251.573 61.82C252.966 64.68 254.873 66.8433 257.293 68.31C259.713 69.7033 262.389 70.4 265.323 70.4Z" fill="var(--fill-0, black)"/>
<path d="M329.213 80.52C323.859 80.52 319.056 79.3467 314.803 77C310.549 74.58 307.176 71.17 304.683 66.77C302.263 62.2967 301.053 57.0167 301.053 50.93C301.053 44.77 302.263 39.49 304.683 35.09C307.176 30.69 310.549 27.28 314.803 24.86C319.056 22.44 323.859 21.23 329.213 21.23C334.566 21.23 339.369 22.44 343.623 24.86C347.876 27.28 351.213 30.69 353.633 35.09C356.126 39.49 357.373 44.77 357.373 50.93C357.373 57.0167 356.126 62.2967 353.633 66.77C351.213 71.17 347.876 74.58 343.623 77C339.369 79.3467 334.566 80.52 329.213 80.52ZM329.213 70.4C332.146 70.4 334.823 69.7033 337.243 68.31C339.663 66.8433 341.569 64.68 342.963 61.82C344.429 58.8867 345.163 55.2567 345.163 50.93C345.163 46.53 344.429 42.9 342.963 40.04C341.569 37.18 339.663 35.0167 337.243 33.55C334.823 32.0833 332.146 31.35 329.213 31.35C326.206 31.35 323.493 32.0833 321.073 33.55C318.653 35.0167 316.709 37.18 315.243 40.04C313.849 42.9 313.153 46.53 313.153 50.93C313.153 55.2567 313.849 58.8867 315.243 61.82C316.709 64.68 318.653 66.8433 321.073 68.31C323.493 69.7033 326.206 70.4 329.213 70.4Z" fill="var(--fill-0, black)"/>
<path d="M386.542 80.52C380.455 80.52 375.395 79.1633 371.362 76.45C367.328 73.6633 364.688 69.3733 363.442 63.58L374.552 60.94C375.432 64.68 376.898 67.3933 378.952 69.08C381.005 70.7667 383.682 71.61 386.982 71.61C390.135 71.61 392.518 70.95 394.132 69.63C395.818 68.31 396.662 66.3667 396.662 63.8C396.662 61.7467 396.112 60.06 395.012 58.74C393.912 57.42 392.005 56.3567 389.292 55.55L379.062 52.69C375.248 51.5167 372.205 49.6833 369.932 47.19C367.658 44.6967 366.522 41.5067 366.522 37.62C366.522 34.32 367.402 31.46 369.162 29.04C370.922 26.5467 373.342 24.64 376.422 23.32C379.502 21.9267 383.058 21.23 387.092 21.23C390.758 21.23 394.058 21.7433 396.992 22.77C399.925 23.7233 402.382 25.2267 404.362 27.28C406.342 29.3333 407.698 31.9367 408.432 35.09L397.542 38.06C396.588 35.3467 395.232 33.3667 393.472 32.12C391.712 30.8733 389.475 30.25 386.762 30.25C383.975 30.25 381.848 30.8733 380.382 32.12C378.915 33.2933 378.182 34.8333 378.182 36.74C378.182 38.5 378.695 39.93 379.722 41.03C380.748 42.13 382.325 43.01 384.452 43.67L394.132 46.53C397.065 47.3367 399.595 48.4 401.722 49.72C403.848 51.04 405.498 52.8 406.672 55C407.845 57.1267 408.432 59.8033 408.432 63.03C408.432 66.77 407.515 69.96 405.682 72.6C403.848 75.1667 401.282 77.1467 397.982 78.54C394.682 79.86 390.868 80.52 386.542 80.52Z" fill="var(--fill-0, black)"/>
<path d="M440.437 80.3C435.231 80.3 431.271 79.0167 428.557 76.45C425.844 73.81 424.487 69.85 424.487 64.57V9.9L436.257 3.63V62.37C436.257 64.9367 436.844 66.8433 438.017 68.09C439.264 69.3367 441.024 69.96 443.297 69.96C444.104 69.96 444.911 69.8867 445.717 69.74C446.597 69.5933 447.551 69.3367 448.577 68.97V78.98C447.184 79.42 445.827 79.75 444.507 79.97C443.261 80.19 441.904 80.3 440.437 80.3ZM413.487 32.01V22.55H449.127V32.01H413.487Z" fill="var(--fill-0, black)"/>
<path d="M457.084 79.2V22.55H468.854V79.2H457.084ZM463.024 15.07C460.897 15.07 459.1 14.3367 457.634 12.87C456.167 11.4033 455.434 9.60667 455.434 7.48C455.434 5.42667 456.167 3.66667 457.634 2.2C459.1 0.733333 460.897 0 463.024 0C465.15 0 466.947 0.733333 468.414 2.2C469.88 3.66667 470.614 5.42667 470.614 7.48C470.614 9.60667 469.88 11.4033 468.414 12.87C466.947 14.3367 465.15 15.07 463.024 15.07Z" fill="var(--fill-0, black)"/>
<path d="M517.239 79.2V44.99C517.239 40.4433 516.176 37.1067 514.049 34.98C511.922 32.78 509.136 31.68 505.689 31.68C501.729 31.68 498.502 33 496.009 35.64C493.589 38.28 492.379 41.91 492.379 46.53V79.2H480.609V22.55H491.719V30.36C493.259 27.5 495.422 25.2633 498.209 23.65C501.069 22.0367 504.516 21.23 508.549 21.23C512.656 21.23 516.249 22.0367 519.329 23.65C522.409 25.2633 524.792 27.72 526.479 31.02C528.166 34.2467 529.009 38.39 529.009 43.45V79.2H517.239Z" fill="var(--fill-0, black)"/>
<path d="M564.635 102.52C557.595 102.52 551.765 101.09 547.145 98.23C542.598 95.37 539.555 91.0067 538.015 85.14L548.575 81.62C549.455 85.0667 551.179 87.78 553.745 89.76C556.385 91.8133 559.942 92.84 564.415 92.84C569.695 92.84 573.728 91.4833 576.515 88.77C579.302 86.13 580.695 82.06 580.695 76.56V67.43C579.448 69.85 577.835 71.7933 575.855 73.26C573.948 74.6533 571.858 75.68 569.585 76.34C567.312 76.9267 565.002 77.22 562.655 77.22C557.888 77.22 553.598 76.0833 549.785 73.81C545.972 71.4633 542.965 68.2 540.765 64.02C538.565 59.84 537.465 54.89 537.465 49.17C537.465 43.5233 538.565 38.61 540.765 34.43C542.965 30.25 545.972 27.0233 549.785 24.75C553.598 22.4033 557.888 21.23 562.655 21.23C565.075 21.23 567.422 21.56 569.695 22.22C572.042 22.88 574.205 23.9433 576.185 25.41C578.165 26.8767 579.778 28.82 581.025 31.24V22.55H592.465V75.02C592.465 81.18 591.365 86.2767 589.165 90.31C587.038 94.4167 583.922 97.46 579.815 99.44C575.709 101.493 570.648 102.52 564.635 102.52ZM565.515 67.21C568.522 67.21 571.198 66.55 573.545 65.23C575.965 63.8367 577.872 61.82 579.265 59.18C580.732 56.4667 581.465 53.13 581.465 49.17C581.465 45.21 580.732 41.91 579.265 39.27C577.872 36.63 575.965 34.65 573.545 33.33C571.198 32.01 568.522 31.35 565.515 31.35C562.582 31.35 559.905 32.01 557.485 33.33C555.065 34.65 553.158 36.6667 551.765 39.38C550.372 42.02 549.675 45.32 549.675 49.28C549.675 53.1667 550.372 56.4667 551.765 59.18C553.158 61.82 555.065 63.8367 557.485 65.23C559.905 66.55 562.582 67.21 565.515 67.21Z" fill="var(--fill-0, black)"/>
</g>
</svg>
