<svg preserveAspectRatio="none" width="100%" height="100%" overflow="visible" style="display: block;" viewBox="0 0 70.3369 70.337" fill="none" xmlns="http://www.w3.org/2000/svg">
<g id="Subtract" opacity="0.3">
<path d="M70.3361 0.708066C69.8826 19.0315 62.4017 36.4796 49.4406 49.4406C36.4734 62.4079 19.0149 69.89 0.681953 70.337L0 42.3449C11.145 42.073 21.7583 37.5245 29.6413 29.6414C37.5244 21.7584 42.073 11.145 42.3449 0C42.3422 0.113331 42.341 0.226994 42.341 0.340977C42.341 8.07296 48.609 14.341 56.341 14.341C63.9502 14.341 70.1414 8.27037 70.3361 0.708066Z" fill="url(#paint0_linear_7_355)"/>
<path d="M70.3366 0.681816L70.3369 0.681953C70.3367 0.688453 70.3365 0.695004 70.3363 0.701504C70.3365 0.694944 70.3364 0.688378 70.3366 0.681816Z" fill="url(#paint1_linear_7_355)"/>
</g>
<defs>
<linearGradient id="paint0_linear_7_355" x1="56.341" y1="0.341003" x2="0.340959" y2="56.3409" gradientUnits="userSpaceOnUse">
<stop stop-color="white"/>
<stop offset="1" stop-color="white" stop-opacity="0"/>
</linearGradient>
<linearGradient id="paint1_linear_7_355" x1="56.341" y1="0.341003" x2="0.340959" y2="56.3409" gradientUnits="userSpaceOnUse">
<stop stop-color="white"/>
<stop offset="1" stop-color="white" stop-opacity="0"/>
</linearGradient>
</defs>
</svg>
