<svg preserveAspectRatio="none" width="100%" height="100%" overflow="visible" style="display: block;" viewBox="0 0 266.267 99.55" fill="none" xmlns="http://www.w3.org/2000/svg">
<g id="name">
<path d="M0 77.55V0H31.13C36.5567 0 41.2133 0.843333 45.1 2.53C48.9867 4.21667 51.9567 6.6 54.01 9.68C56.1367 12.76 57.2 16.4633 57.2 20.79C57.2 25.0433 56.1367 28.71 54.01 31.79C51.9567 34.87 48.9867 37.2533 45.1 38.94C41.2133 40.6267 36.5567 41.47 31.13 41.47H19.36V36.96H6.71V31.24H30.25C34.9433 31.24 38.5367 30.3967 41.03 28.71C43.5967 26.95 44.88 24.31 44.88 20.79C44.88 17.1967 43.5967 14.5567 41.03 12.87C38.5367 11.11 34.9433 10.23 30.25 10.23H8.25L12.32 6.05V77.55H0ZM46.09 77.55L8.47 35.31H23.1L62.04 77.55H46.09Z" fill="var(--fill-0, black)"/>
<path d="M91.5432 78.87C85.8232 78.87 80.8732 77.66 76.6932 75.24C72.5865 72.7467 69.4332 69.2267 67.2332 64.68C65.0332 60.1333 63.9332 54.89 63.9332 48.95C63.9332 43.1567 65.1065 38.06 67.4532 33.66C69.7999 29.1867 72.9899 25.74 77.0232 23.32C81.1299 20.8267 85.8232 19.58 91.1032 19.58C96.2365 19.58 100.71 20.68 104.523 22.88C108.41 25.0067 111.417 28.05 113.543 32.01C115.67 35.97 116.733 40.6633 116.733 46.09C116.733 47.19 116.697 48.29 116.623 49.39C116.623 50.4167 116.55 51.2967 116.403 52.03H70.0932V43.56H109.253L105.183 45.43C105.257 41.8367 104.707 38.83 103.533 36.41C102.36 33.9167 100.673 32.0467 98.4732 30.8C96.3465 29.5533 93.7432 28.93 90.6632 28.93C87.8765 28.93 85.3099 29.5533 82.9632 30.8C80.6899 32.0467 78.8932 33.99 77.5732 36.63C76.3265 39.27 75.7032 42.6433 75.7032 46.75V50.27C75.7032 56.21 77.0232 60.8667 79.6632 64.24C82.3765 67.54 86.4465 69.19 91.8732 69.19C95.3199 69.19 98.2165 68.4567 100.563 66.99C102.91 65.45 104.78 63.14 106.173 60.06L115.633 64.35C114.24 67.5767 112.37 70.29 110.023 72.49C107.75 74.6167 105.037 76.23 101.883 77.33C98.8032 78.3567 95.3565 78.87 91.5432 78.87Z" fill="var(--fill-0, black)"/>
<path d="M125.54 77.55V20.9H136.65V28.49C138.043 25.5567 140.097 23.3567 142.81 21.89C145.597 20.35 148.933 19.58 152.82 19.58C156.707 19.58 160.043 20.3867 162.83 22C165.69 23.54 167.817 25.8133 169.21 28.82C170.677 25.96 172.877 23.7233 175.81 22.11C178.743 20.4233 182.153 19.58 186.04 19.58C190.293 19.58 193.85 20.3867 196.71 22C199.643 23.54 201.88 25.8133 203.42 28.82C204.96 31.8267 205.73 35.4933 205.73 39.82V77.55H193.96V42.57C193.96 38.5367 193.007 35.4567 191.1 33.33C189.193 31.13 186.59 30.03 183.29 30.03C179.55 30.03 176.653 31.3133 174.6 33.88C172.547 36.4467 171.52 40.04 171.52 44.66V77.55H159.75V42.57C159.75 38.5367 158.797 35.4567 156.89 33.33C154.983 31.13 152.38 30.03 149.08 30.03C145.487 30.03 142.627 31.35 140.5 33.99C138.373 36.63 137.31 40.26 137.31 44.88V77.55H125.54Z" fill="var(--fill-0, black)"/>
<path d="M227.987 99.55L236.567 74.03L237.447 72.16L254.167 20.9H266.267L239.977 99.55H227.987ZM230.407 77.22L210.717 20.9H222.817L239.207 69.41H242.397L241.737 77.22H230.407Z" fill="var(--fill-0, black)"/>
</g>
</svg>
