<svg preserveAspectRatio="none" width="100%" height="100%" overflow="visible" style="display: block;" viewBox="0 0 390.338 123.544" fill="none" xmlns="http://www.w3.org/2000/svg">
<g id="name">
<path d="M0 79.2V1.65H31.13C36.5567 1.65 41.2133 2.49333 45.1 4.18C48.9867 5.86667 51.9567 8.25 54.01 11.33C56.1367 14.41 57.2 18.1133 57.2 22.44C57.2 26.6933 56.1367 30.36 54.01 33.44C51.9567 36.52 48.9867 38.9033 45.1 40.59C41.2133 42.2767 36.5567 43.12 31.13 43.12H19.36V38.61H6.71V32.89H30.25C34.9433 32.89 38.5367 32.0467 41.03 30.36C43.5967 28.6 44.88 25.96 44.88 22.44C44.88 18.8467 43.5967 16.2067 41.03 14.52C38.5367 12.76 34.9433 11.88 30.25 11.88H8.25L12.32 7.7V79.2H0ZM46.09 79.2L8.47 36.96H23.1L62.04 79.2H46.09Z" fill="var(--fill-0, black)"/>
<path d="M91.5432 80.52C85.8232 80.52 80.8732 79.31 76.6932 76.89C72.5865 74.3967 69.4332 70.8767 67.2332 66.33C65.0332 61.7833 63.9332 56.54 63.9332 50.6C63.9332 44.8067 65.1065 39.71 67.4532 35.31C69.7999 30.8367 72.9899 27.39 77.0232 24.97C81.1299 22.4767 85.8232 21.23 91.1032 21.23C96.2365 21.23 100.71 22.33 104.523 24.53C108.41 26.6567 111.417 29.7 113.543 33.66C115.67 37.62 116.733 42.3133 116.733 47.74C116.733 48.84 116.697 49.94 116.623 51.04C116.623 52.0667 116.55 52.9467 116.403 53.68H70.0932V45.21H109.253L105.183 47.08C105.257 43.4867 104.707 40.48 103.533 38.06C102.36 35.5667 100.673 33.6967 98.4732 32.45C96.3465 31.2033 93.7432 30.58 90.6632 30.58C87.8765 30.58 85.3099 31.2033 82.9632 32.45C80.6899 33.6967 78.8932 35.64 77.5732 38.28C76.3265 40.92 75.7032 44.2933 75.7032 48.4V51.92C75.7032 57.86 77.0232 62.5167 79.6632 65.89C82.3765 69.19 86.4465 70.84 91.8732 70.84C95.3199 70.84 98.2165 70.1067 100.563 68.64C102.91 67.1 104.78 64.79 106.173 61.71L115.633 66C114.24 69.2267 112.37 71.94 110.023 74.14C107.75 76.2667 105.037 77.88 101.883 78.98C98.8032 80.0067 95.3565 80.52 91.5432 80.52Z" fill="var(--fill-0, black)"/>
<path d="M125.54 79.2V22.55H136.65V30.14C138.043 27.2067 140.097 25.0067 142.81 23.54C145.597 22 148.933 21.23 152.82 21.23C156.707 21.23 160.043 22.0367 162.83 23.65C165.69 25.19 167.817 27.4633 169.21 30.47C170.677 27.61 172.877 25.3733 175.81 23.76C178.743 22.0733 182.153 21.23 186.04 21.23C190.293 21.23 193.85 22.0367 196.71 23.65C199.643 25.19 201.88 27.4633 203.42 30.47C204.96 33.4767 205.73 37.1433 205.73 41.47V79.2H193.96V44.22C193.96 40.1867 193.007 37.1067 191.1 34.98C189.193 32.78 186.59 31.68 183.29 31.68C179.55 31.68 176.653 32.9633 174.6 35.53C172.547 38.0967 171.52 41.69 171.52 46.31V79.2H159.75V44.22C159.75 40.1867 158.797 37.1067 156.89 34.98C154.983 32.78 152.38 31.68 149.08 31.68C145.487 31.68 142.627 33 140.5 35.64C138.373 38.28 137.31 41.91 137.31 46.53V79.2H125.54Z" fill="var(--fill-0, black)"/>
<path d="M216.849 79.2V22.55H228.619V79.2H216.849ZM222.789 15.07C220.662 15.07 218.865 14.3367 217.399 12.87C215.932 11.4033 215.199 9.60667 215.199 7.48C215.199 5.42667 215.932 3.66667 217.399 2.2C218.865 0.733333 220.662 0 222.789 0C224.915 0 226.712 0.733333 228.179 2.2C229.645 3.66667 230.379 5.42667 230.379 7.48C230.379 9.60667 229.645 11.4033 228.179 12.87C226.712 14.3367 224.915 15.07 222.789 15.07Z" fill="var(--fill-0, black)"/>
<path d="M263.474 80.3C258.267 80.3 254.307 79.0167 251.594 76.45C248.881 73.81 247.524 69.85 247.524 64.57V9.9L259.294 3.63V62.37C259.294 64.9367 259.881 66.8433 261.054 68.09C262.301 69.3367 264.061 69.96 266.334 69.96C267.141 69.96 267.947 69.8867 268.754 69.74C269.634 69.5933 270.587 69.3367 271.614 68.97V78.98C270.221 79.42 268.864 79.75 267.544 79.97C266.297 80.19 264.941 80.3 263.474 80.3ZM236.524 32.01V22.55H272.164V32.01H236.524Z" fill="var(--fill-0, black)"/>
<path d="M299.238 79.2L323.878 1.65H344.888L369.528 79.2H356.548L334.438 6.93L312.218 79.2H299.238ZM316.398 51.15V40.81H352.368V51.15H316.398Z" fill="var(--fill-0, black)"/>
<path d="M378.018 79.2V1.65H390.338V79.2H378.018Z" fill="var(--fill-0, black)"/>
<path d="M286.439 116.29C287.167 116.29 287.808 116.117 288.363 115.77C288.918 115.423 289.36 114.903 289.689 114.21C290.036 113.517 290.209 112.65 290.209 111.61C290.209 110.57 290.036 109.712 289.689 109.036C289.36 108.343 288.918 107.823 288.363 107.476C287.808 107.129 287.167 106.956 286.439 106.956C285.746 106.956 285.113 107.129 284.541 107.476C283.969 107.823 283.51 108.343 283.163 109.036C282.834 109.729 282.669 110.587 282.669 111.61C282.669 112.65 282.834 113.517 283.163 114.21C283.51 114.903 283.96 115.423 284.515 115.77C285.087 116.117 285.728 116.29 286.439 116.29ZM280.069 118.344V99.91H282.851V106.904H282.877C283.189 106.349 283.57 105.907 284.021 105.578C284.489 105.231 284.983 104.98 285.503 104.824C286.04 104.668 286.586 104.59 287.141 104.59C288.285 104.59 289.299 104.876 290.183 105.448C291.084 106.003 291.786 106.809 292.289 107.866C292.809 108.906 293.069 110.154 293.069 111.61C293.069 113.083 292.809 114.349 292.289 115.406C291.769 116.446 291.058 117.252 290.157 117.824C289.273 118.379 288.268 118.656 287.141 118.656C286.552 118.656 285.971 118.569 285.399 118.396C284.827 118.24 284.307 117.98 283.839 117.616C283.371 117.252 282.99 116.784 282.695 116.212H282.669V118.344H280.069Z" fill="var(--fill-0, black)"/>
<path d="M297.934 123.544L299.962 117.59L300.274 116.992L304.174 104.902H307.06L300.768 123.544H297.934ZM298.61 118.266L293.904 104.902H296.764L300.638 116.42H301.418L301.262 118.266H298.61Z" fill="var(--fill-0, black)"/>
<path d="M314.027 118.344V114.574L322.451 107.242V107.216H314.365V104.902H324.609V108.646L316.185 116.004V116.03H325.259V118.344H314.027Z" fill="var(--fill-0, black)"/>
<path d="M333.123 118.656C331.788 118.656 330.627 118.361 329.639 117.772C328.651 117.183 327.888 116.351 327.351 115.276C326.831 114.201 326.571 112.953 326.571 111.532C326.571 110.163 326.848 108.958 327.403 107.918C327.975 106.861 328.746 106.046 329.717 105.474C330.687 104.885 331.788 104.59 333.019 104.59C334.249 104.59 335.315 104.85 336.217 105.37C337.135 105.873 337.846 106.592 338.349 107.528C338.851 108.464 339.103 109.582 339.103 110.882C339.103 111.142 339.094 111.402 339.077 111.662C339.077 111.905 339.068 112.104 339.051 112.26H328.053V110.284H337.335L336.399 110.7C336.416 109.851 336.286 109.131 336.009 108.542C335.731 107.953 335.333 107.511 334.813 107.216C334.293 106.904 333.669 106.748 332.941 106.748C332.265 106.748 331.649 106.904 331.095 107.216C330.557 107.511 330.133 107.979 329.821 108.62C329.509 109.244 329.353 110.05 329.353 111.038V111.87C329.353 113.274 329.673 114.375 330.315 115.172C330.973 115.969 331.944 116.368 333.227 116.368C334.041 116.368 334.726 116.195 335.281 115.848C335.835 115.501 336.286 114.964 336.633 114.236L338.843 115.302C338.513 116.03 338.071 116.645 337.517 117.148C336.979 117.651 336.338 118.032 335.593 118.292C334.865 118.535 334.041 118.656 333.123 118.656Z" fill="var(--fill-0, black)"/>
<path d="M350.046 118.344V110.154C350.046 109.097 349.795 108.317 349.292 107.814C348.789 107.294 348.131 107.034 347.316 107.034C346.363 107.034 345.591 107.346 345.002 107.97C344.43 108.594 344.144 109.452 344.144 110.544V118.344H341.362V104.902H343.962V106.826H343.988C344.352 106.115 344.872 105.569 345.548 105.188C346.224 104.789 347.047 104.59 348.018 104.59C348.989 104.59 349.829 104.781 350.54 105.162C351.268 105.543 351.831 106.124 352.23 106.904C352.629 107.667 352.828 108.637 352.828 109.816V118.344H350.046Z" fill="var(--fill-0, black)"/>
<path d="M360.836 118.604C359.606 118.604 358.67 118.301 358.028 117.694C357.404 117.07 357.092 116.125 357.092 114.86V101.912L359.874 100.43V114.366C359.874 114.99 360.013 115.449 360.29 115.744C360.585 116.039 360.992 116.186 361.512 116.186C361.703 116.186 361.902 116.169 362.11 116.134C362.318 116.099 362.544 116.039 362.786 115.952V118.292C362.457 118.396 362.136 118.474 361.824 118.526C361.512 118.578 361.183 118.604 360.836 118.604ZM354.492 107.112V104.902H362.89V107.112H354.492Z" fill="var(--fill-0, black)"/>
<path d="M364.975 118.344V104.902H367.757V118.344H364.975ZM366.379 103.056C365.877 103.056 365.452 102.883 365.105 102.536C364.759 102.189 364.585 101.773 364.585 101.288C364.585 100.785 364.759 100.369 365.105 100.04C365.452 99.6933 365.877 99.52 366.379 99.52C366.882 99.52 367.298 99.6933 367.627 100.04C367.974 100.369 368.147 100.785 368.147 101.288C368.147 101.773 367.974 102.189 367.627 102.536C367.281 102.883 366.865 103.056 366.379 103.056Z" fill="var(--fill-0, black)"/>
<path d="M375.393 118.656C373.955 118.656 372.75 118.335 371.779 117.694C370.826 117.035 370.202 116.039 369.907 114.704L372.507 114.08C372.715 114.947 373.071 115.579 373.573 115.978C374.076 116.359 374.726 116.55 375.523 116.55C376.269 116.55 376.841 116.394 377.239 116.082C377.655 115.77 377.863 115.311 377.863 114.704C377.863 114.201 377.725 113.794 377.447 113.482C377.187 113.17 376.737 112.927 376.095 112.754L373.651 112.052C372.715 111.792 371.97 111.367 371.415 110.778C370.878 110.171 370.609 109.409 370.609 108.49C370.609 107.693 370.817 107.008 371.233 106.436C371.649 105.847 372.23 105.396 372.975 105.084C373.721 104.755 374.57 104.59 375.523 104.59C376.407 104.59 377.196 104.711 377.889 104.954C378.583 105.179 379.163 105.535 379.631 106.02C380.117 106.488 380.446 107.095 380.619 107.84L378.045 108.542C377.82 107.901 377.491 107.433 377.057 107.138C376.641 106.843 376.113 106.696 375.471 106.696C374.778 106.696 374.249 106.843 373.885 107.138C373.539 107.433 373.365 107.814 373.365 108.282C373.365 108.698 373.487 109.045 373.729 109.322C373.989 109.582 374.388 109.79 374.925 109.946L377.239 110.622C377.933 110.813 378.531 111.064 379.033 111.376C379.536 111.688 379.926 112.104 380.203 112.624C380.498 113.127 380.645 113.759 380.645 114.522C380.645 115.389 380.42 116.134 379.969 116.758C379.536 117.365 378.929 117.833 378.149 118.162C377.369 118.491 376.451 118.656 375.393 118.656Z" fill="var(--fill-0, black)"/>
<path d="M388.284 118.604C387.053 118.604 386.117 118.301 385.476 117.694C384.852 117.07 384.54 116.125 384.54 114.86V101.912L387.322 100.43V114.366C387.322 114.99 387.46 115.449 387.738 115.744C388.032 116.039 388.44 116.186 388.96 116.186C389.15 116.186 389.35 116.169 389.558 116.134C389.766 116.099 389.991 116.039 390.234 115.952V118.292C389.904 118.396 389.584 118.474 389.272 118.526C388.96 118.578 388.63 118.604 388.284 118.604ZM381.94 107.112V104.902H390.338V107.112H381.94Z" fill="var(--fill-0, black)"/>
</g>
</svg>
