<svg preserveAspectRatio="none" width="100%" height="100%" overflow="visible" style="display: block;" viewBox="0 0 390.338 80.52" fill="none" xmlns="http://www.w3.org/2000/svg">
<g id="name">
<path d="M0 79.2V1.65H31.13C36.5567 1.65 41.2133 2.49333 45.1 4.18C48.9867 5.86667 51.9567 8.25 54.01 11.33C56.1367 14.41 57.2 18.1133 57.2 22.44C57.2 26.6933 56.1367 30.36 54.01 33.44C51.9567 36.52 48.9867 38.9033 45.1 40.59C41.2133 42.2767 36.5567 43.12 31.13 43.12H19.36V38.61H6.71V32.89H30.25C34.9433 32.89 38.5367 32.0467 41.03 30.36C43.5967 28.6 44.88 25.96 44.88 22.44C44.88 18.8467 43.5967 16.2067 41.03 14.52C38.5367 12.76 34.9433 11.88 30.25 11.88H8.25L12.32 7.7V79.2H0ZM46.09 79.2L8.47 36.96H23.1L62.04 79.2H46.09Z" fill="var(--fill-0, black)"/>
<path d="M91.5432 80.52C85.8232 80.52 80.8732 79.31 76.6932 76.89C72.5865 74.3967 69.4332 70.8767 67.2332 66.33C65.0332 61.7833 63.9332 56.54 63.9332 50.6C63.9332 44.8067 65.1065 39.71 67.4532 35.31C69.7999 30.8367 72.9899 27.39 77.0232 24.97C81.1299 22.4767 85.8232 21.23 91.1032 21.23C96.2365 21.23 100.71 22.33 104.523 24.53C108.41 26.6567 111.417 29.7 113.543 33.66C115.67 37.62 116.733 42.3133 116.733 47.74C116.733 48.84 116.697 49.94 116.623 51.04C116.623 52.0667 116.55 52.9467 116.403 53.68H70.0932V45.21H109.253L105.183 47.08C105.257 43.4867 104.707 40.48 103.533 38.06C102.36 35.5667 100.673 33.6967 98.4732 32.45C96.3465 31.2033 93.7432 30.58 90.6632 30.58C87.8765 30.58 85.3099 31.2033 82.9632 32.45C80.6899 33.6967 78.8932 35.64 77.5732 38.28C76.3265 40.92 75.7032 44.2933 75.7032 48.4V51.92C75.7032 57.86 77.0232 62.5167 79.6632 65.89C82.3765 69.19 86.4465 70.84 91.8732 70.84C95.3199 70.84 98.2165 70.1067 100.563 68.64C102.91 67.1 104.78 64.79 106.173 61.71L115.633 66C114.24 69.2267 112.37 71.94 110.023 74.14C107.75 76.2667 105.037 77.88 101.883 78.98C98.8032 80.0067 95.3565 80.52 91.5432 80.52Z" fill="var(--fill-0, black)"/>
<path d="M125.54 79.2V22.55H136.65V30.14C138.043 27.2067 140.097 25.0067 142.81 23.54C145.597 22 148.933 21.23 152.82 21.23C156.707 21.23 160.043 22.0367 162.83 23.65C165.69 25.19 167.817 27.4633 169.21 30.47C170.677 27.61 172.877 25.3733 175.81 23.76C178.743 22.0733 182.153 21.23 186.04 21.23C190.293 21.23 193.85 22.0367 196.71 23.65C199.643 25.19 201.88 27.4633 203.42 30.47C204.96 33.4767 205.73 37.1433 205.73 41.47V79.2H193.96V44.22C193.96 40.1867 193.007 37.1067 191.1 34.98C189.193 32.78 186.59 31.68 183.29 31.68C179.55 31.68 176.653 32.9633 174.6 35.53C172.547 38.0967 171.52 41.69 171.52 46.31V79.2H159.75V44.22C159.75 40.1867 158.797 37.1067 156.89 34.98C154.983 32.78 152.38 31.68 149.08 31.68C145.487 31.68 142.627 33 140.5 35.64C138.373 38.28 137.31 41.91 137.31 46.53V79.2H125.54Z" fill="var(--fill-0, black)"/>
<path d="M216.849 79.2V22.55H228.619V79.2H216.849ZM222.789 15.07C220.662 15.07 218.865 14.3367 217.399 12.87C215.932 11.4033 215.199 9.60667 215.199 7.48C215.199 5.42667 215.932 3.66667 217.399 2.2C218.865 0.733333 220.662 0 222.789 0C224.915 0 226.712 0.733333 228.179 2.2C229.645 3.66667 230.379 5.42667 230.379 7.48C230.379 9.60667 229.645 11.4033 228.179 12.87C226.712 14.3367 224.915 15.07 222.789 15.07Z" fill="var(--fill-0, black)"/>
<path d="M263.474 80.3C258.267 80.3 254.307 79.0167 251.594 76.45C248.881 73.81 247.524 69.85 247.524 64.57V9.9L259.294 3.63V62.37C259.294 64.9367 259.881 66.8433 261.054 68.09C262.301 69.3367 264.061 69.96 266.334 69.96C267.141 69.96 267.947 69.8867 268.754 69.74C269.634 69.5933 270.587 69.3367 271.614 68.97V78.98C270.221 79.42 268.864 79.75 267.544 79.97C266.297 80.19 264.941 80.3 263.474 80.3ZM236.524 32.01V22.55H272.164V32.01H236.524Z" fill="var(--fill-0, black)"/>
<path d="M299.238 79.2L323.878 1.65H344.888L369.528 79.2H356.548L334.438 6.93L312.218 79.2H299.238ZM316.398 51.15V40.81H352.368V51.15H316.398Z" fill="var(--fill-0, black)"/>
<path d="M378.018 79.2V1.65H390.338V79.2H378.018Z" fill="var(--fill-0, black)"/>
</g>
</svg>
